<svg xmlns="http://www.w3.org/2000/svg" width="34.063" height="34.063" viewBox="0 0 34.063 34.063">
  <path id="icons8-instagram" d="M12.932,3A9.947,9.947,0,0,0,3,12.938V27.131a9.947,9.947,0,0,0,9.938,9.932H27.131a9.947,9.947,0,0,0,9.932-9.938V12.932A9.947,9.947,0,0,0,27.125,3ZM29.967,8.677A1.419,1.419,0,1,1,28.547,10.1,1.42,1.42,0,0,1,29.967,8.677Zm-9.935,2.839a8.516,8.516,0,1,1-8.516,8.516A8.524,8.524,0,0,1,20.032,11.516Zm0,2.839a5.677,5.677,0,1,0,5.677,5.677A5.677,5.677,0,0,0,20.032,14.354Z" transform="translate(-3 -3)" fill="#fff"/>
</svg>
