<svg xmlns="http://www.w3.org/2000/svg" width="68.638" height="68.638" viewBox="0 0 68.638 68.638">
  <path id="money_off_FILL0_wght400_GRAD0_opsz48" d="M47.916,25.1a10.453,10.453,0,0,0-3.467-4.593,8.858,8.858,0,0,0-5.373-1.647,11.789,11.789,0,0,0-4.767.91,9.717,9.717,0,0,0-3.553,2.643l-3.64-3.64a13.974,13.974,0,0,1,4.2-3.293,15.448,15.448,0,0,1,5.07-1.56V6.293h5.2v7.54a13.706,13.706,0,0,1,6.63,2.643,14.718,14.718,0,0,1,4.723,6.37ZM67.762,74.238,51.122,57.6a12.048,12.048,0,0,1-4.377,2.687,19.24,19.24,0,0,1-5.157,1.04v7.366h-5.2V61.239A14.182,14.182,0,0,1,28.156,57.3a18.189,18.189,0,0,1-4.68-7.93l5.2-1.82a12.227,12.227,0,0,0,3.943,6.587,10.738,10.738,0,0,0,6.89,2.167,16.994,16.994,0,0,0,4.377-.563,7.041,7.041,0,0,0,3.423-1.95L2.85,9.327,6.577,5.6,71.488,70.512Z" transform="translate(-2.85 -5.6)"/>
</svg>
