<svg id="article_black_24dp_2_" data-name="article_black_24dp (2)" xmlns="http://www.w3.org/2000/svg" width="85" height="85" viewBox="0 0 85 85">
  <rect id="Rectangle_360" data-name="Rectangle 360" width="85" height="85" fill="none"/>
  <g id="Group_35" data-name="Group 35" transform="translate(10.619 10.619)">
    <path id="Path_179" data-name="Path 179" d="M59.633,10.079V59.633H10.079V10.079H59.633m0-7.079H10.079A7.1,7.1,0,0,0,3,10.079V59.633a7.1,7.1,0,0,0,7.079,7.079H59.633a7.1,7.1,0,0,0,7.079-7.079V10.079A7.1,7.1,0,0,0,59.633,3Z" transform="translate(-3 -3)" fill="#7b7b7b"/>
  </g>
  <path id="Path_180" data-name="Path 180" d="M31.777,42.4H7V35.316H31.777ZM42.4,28.237H7V21.158H42.4Zm0-14.158H7V7H42.4Z" transform="translate(17.777 17.777)" fill="#7b7b7b"/>
</svg>
