<svg id="image_black_24dp_1_" data-name="image_black_24dp (1)" xmlns="http://www.w3.org/2000/svg" width="75.397" height="75.397" viewBox="0 0 75.397 75.397">
  <path id="Path_181" data-name="Path 181" d="M0,0H75.4V75.4H0Z" fill="none"/>
  <path id="Path_182" data-name="Path 182" d="M53.265,9.283V53.265H9.283V9.283H53.265m0-6.283H9.283A6.3,6.3,0,0,0,3,9.283V53.265a6.3,6.3,0,0,0,6.283,6.283H53.265a6.3,6.3,0,0,0,6.283-6.283V9.283A6.3,6.3,0,0,0,53.265,3ZM38,30.834,28.572,42.992l-6.723-8.137L12.425,46.982h37.7L38,30.834Z" transform="translate(6.425 6.425)" fill="#7b7b7b"/>
</svg>
