<svg xmlns="http://www.w3.org/2000/svg" width="31.14" height="31.14" viewBox="0 0 31.14 31.14">
  <path id="equation" d="M18.173,31.95V29.355h2.548l5.226-6.012-5.226-6.1h-3.2L14.458,33.074A5.258,5.258,0,0,1,12.99,36.08,4.046,4.046,0,0,1,10.1,37.14,4.334,4.334,0,0,1,7.138,36.1,3.3,3.3,0,0,1,5.95,33.507,2.691,2.691,0,0,1,6.6,31.626a2.169,2.169,0,0,1,1.684-.714,2.157,2.157,0,0,1,1.49.519,1.761,1.761,0,0,1,.583,1.384,2.047,2.047,0,0,1-.194.887,1.768,1.768,0,0,1-.54.67,1.586,1.586,0,0,0,.367.13,1.885,1.885,0,0,0,.41.043,1.143,1.143,0,0,0,.95-.541A3.592,3.592,0,0,0,11.91,32.6l2.98-15.354H9.448v-2.6h5.917l.907-4.585A5.333,5.333,0,0,1,17.827,7.06,4.142,4.142,0,0,1,20.721,6a4.174,4.174,0,0,1,2.915,1.038,3.358,3.358,0,0,1,1.145,2.6,2.691,2.691,0,0,1-.648,1.881,2.169,2.169,0,0,1-1.684.714,2.236,2.236,0,0,1-1.468-.5,1.623,1.623,0,0,1-.6-1.319,2.156,2.156,0,0,1,.173-.843,2.071,2.071,0,0,1,.432-.67.723.723,0,0,0-.259-.151.977.977,0,0,0-.346-.065A1.211,1.211,0,0,0,19.4,9.2a3.187,3.187,0,0,0-.583,1.341l-.777,4.109h8.163v2.6h-2.03L27.761,21.4l3.369-4.152H29.057v-2.6H37.09v2.6H34.585l-5.183,6.1,5.183,6.012H37.09V31.95H29.057V29.355H31.13l-3.455-4.022-3.542,4.022h2.073V31.95Z" transform="translate(-5.95 -6)" fill="#7b7b7b"/>
</svg>
