<svg xmlns="http://www.w3.org/2000/svg" width="18.914" height="18.914" viewBox="0 0 18.914 18.914">
  <path id="sentiment_satisfied_FILL0_wght400_GRAD0_opsz48_1_" data-name="sentiment_satisfied_FILL0_wght400_GRAD0_opsz48 (1)" d="M16.909,12.2a1.252,1.252,0,1,0-.91-.366A1.236,1.236,0,0,0,16.909,12.2Zm-6.9,0a1.252,1.252,0,1,0-.91-.366A1.236,1.236,0,0,0,10.005,12.2Zm3.452,6.431A5.226,5.226,0,0,0,16.33,17.8a4.813,4.813,0,0,0,1.9-2.282H17a3.723,3.723,0,0,1-1.489,1.454,4.229,4.229,0,0,1-2.033.508,4.428,4.428,0,0,1-2.069-.5,3.445,3.445,0,0,1-1.478-1.466H8.681A4.974,4.974,0,0,0,10.6,17.8,5.168,5.168,0,0,0,13.457,18.635Zm0,4.279a9.151,9.151,0,0,1-3.665-.745,9.528,9.528,0,0,1-5.048-5.048,9.447,9.447,0,0,1,0-7.353,9.451,9.451,0,0,1,2.033-3A9.694,9.694,0,0,1,9.792,4.745a9.447,9.447,0,0,1,7.353,0,9.442,9.442,0,0,1,5.024,5.024,9.447,9.447,0,0,1,0,7.353,9.694,9.694,0,0,1-2.021,3.014,9.451,9.451,0,0,1-3,2.033A9.209,9.209,0,0,1,13.457,22.914Zm0-9.457Zm0,8.038a7.735,7.735,0,0,0,5.7-2.352A7.766,7.766,0,0,0,21.5,13.457a7.755,7.755,0,0,0-2.341-5.7,7.755,7.755,0,0,0-5.7-2.341A7.766,7.766,0,0,0,7.771,7.759a7.735,7.735,0,0,0-2.352,5.7,7.746,7.746,0,0,0,2.352,5.686A7.746,7.746,0,0,0,13.457,21.5Z" transform="translate(-4 -4)" fill="#fff"/>
</svg>
