<svg id="image_black_24dp" xmlns="http://www.w3.org/2000/svg" width="31.152" height="31.152" viewBox="0 0 31.152 31.152">
  <path id="Path_176" data-name="Path 176" d="M0,0H31.152V31.152H0Z" fill="none"/>
  <path id="Path_177" data-name="Path 177" d="M23.768,5.6V23.768H5.6V5.6H23.768m0-2.6H5.6A2.6,2.6,0,0,0,3,5.6V23.768a2.6,2.6,0,0,0,2.6,2.6H23.768a2.6,2.6,0,0,0,2.6-2.6V5.6A2.6,2.6,0,0,0,23.768,3ZM17.46,14.5l-3.894,5.023-2.778-3.362-3.894,5.01H22.47L17.46,14.5Z" transform="translate(0.894 0.894)" fill="#7b7b7b"/>
</svg>
