<svg xmlns="http://www.w3.org/2000/svg" width="17.608" height="17.608" viewBox="0 0 17.608 17.608">
  <path id="today_FILL0_wght400_GRAD0_opsz48" d="M11.7,16.546a2.43,2.43,0,0,1-1.687-.616,2.027,2.027,0,0,1,0-3.037,2.43,2.43,0,0,1,1.687-.616,2.43,2.43,0,0,1,1.687.616,2.027,2.027,0,0,1,0,3.037A2.43,2.43,0,0,1,11.7,16.546ZM7.467,21.608a1.487,1.487,0,0,1-1.027-.4A1.21,1.21,0,0,1,6,20.288V6.641a1.21,1.21,0,0,1,.44-.924,1.487,1.487,0,0,1,1.027-.4h1.59V4h1.59V5.321h8.315V4h1.59V5.321h1.59a1.487,1.487,0,0,1,1.027.4,1.21,1.21,0,0,1,.44.924V20.288a1.21,1.21,0,0,1-.44.924,1.487,1.487,0,0,1-1.027.4Zm0-1.321H22.141V10.823H7.467Zm0-10.785H22.141V6.641H7.467Zm0,0v0Z" transform="translate(-6 -4)" fill="#fff"/>
</svg>
