<svg id="person_black_24dp" xmlns="http://www.w3.org/2000/svg" width="29.522" height="29.522" viewBox="0 0 29.522 29.522">
  <path id="Path_164" data-name="Path 164" d="M0,0H29.522V29.522H0Z" fill="none"/>
  <path id="Path_165" data-name="Path 165" d="M13.841,6.46a2.46,2.46,0,1,1-2.46,2.46,2.467,2.467,0,0,1,2.46-2.46m0,12.3c3.321,0,7.135,1.587,7.381,2.46H6.46c.283-.886,4.072-2.46,7.381-2.46M13.841,4a4.92,4.92,0,1,0,4.92,4.92A4.919,4.919,0,0,0,13.841,4Zm0,12.3C10.556,16.3,4,17.949,4,21.221v2.46H23.682v-2.46C23.682,17.949,17.125,16.3,13.841,16.3Z" transform="translate(0.92 0.92)" fill="#fff"/>
</svg>
