<svg id="picture_as_pdf_black_24dp" xmlns="http://www.w3.org/2000/svg" width="83.059" height="83.059" viewBox="0 0 83.059 83.059">
  <path id="Path_174" data-name="Path 174" d="M0,0H83.059V83.059H0Z" fill="none"/>
  <path id="Path_175" data-name="Path 175" d="M64.294,2H22.765a6.942,6.942,0,0,0-6.922,6.922v41.53a6.942,6.942,0,0,0,6.922,6.922h41.53a6.942,6.942,0,0,0,6.922-6.922V8.922A6.942,6.942,0,0,0,64.294,2Zm0,48.451H22.765V8.922h41.53ZM8.922,15.843H2V64.294a6.942,6.942,0,0,0,6.922,6.922H57.373V64.294H8.922Zm41.53,20.765V26.226a3.471,3.471,0,0,0-3.461-3.461H40.069v17.3H46.99A3.471,3.471,0,0,0,50.451,36.608ZM43.53,26.226H46.99V36.608H43.53Zm13.843,6.922h3.461V29.686H57.373V26.226h3.461V22.765H53.912v17.3h3.461Zm-27.686,0h3.461a3.471,3.471,0,0,0,3.461-3.461V26.226a3.471,3.471,0,0,0-3.461-3.461H26.226v17.3h3.461Zm0-6.922h3.461v3.461H29.686Z" transform="translate(4.922 4.922)" fill="#7b7b7b"/>
</svg>
