<svg id="picture_as_pdf_black_24dp" xmlns="http://www.w3.org/2000/svg" width="53.752" height="53.752" viewBox="0 0 53.752 53.752">
  <path id="Path_174" data-name="Path 174" d="M0,0H53.752V53.752H0Z" fill="none"/>
  <path id="Path_175" data-name="Path 175" d="M42.314,2H15.438a4.492,4.492,0,0,0-4.479,4.479V33.355a4.492,4.492,0,0,0,4.479,4.479H42.314a4.492,4.492,0,0,0,4.479-4.479V6.479A4.492,4.492,0,0,0,42.314,2Zm0,31.355H15.438V6.479H42.314ZM6.479,10.959H2V42.314a4.492,4.492,0,0,0,4.479,4.479H37.835V42.314H6.479ZM33.355,24.4V17.678a2.246,2.246,0,0,0-2.24-2.24H26.636v11.2h4.479A2.246,2.246,0,0,0,33.355,24.4Zm-4.479-6.719h2.24V24.4h-2.24Zm8.959,4.479h2.24v-2.24h-2.24v-2.24h2.24v-2.24H35.595v11.2h2.24Zm-17.917,0h2.24a2.246,2.246,0,0,0,2.24-2.24v-2.24a2.246,2.246,0,0,0-2.24-2.24H17.678v11.2h2.24Zm0-4.479h2.24v2.24h-2.24Z" transform="translate(2.479 2.479)" fill="#7b7b7b"/>
</svg>
