<svg xmlns="http://www.w3.org/2000/svg" width="18.151" height="20.168" viewBox="0 0 18.151 20.168">
  <path id="event_FILL0_wght400_GRAD0_opsz48" d="M18.025,20.639a2.411,2.411,0,1,1,1.74-.706A2.364,2.364,0,0,1,18.025,20.639ZM7.513,24.168A1.551,1.551,0,0,1,6,22.656V7.025A1.551,1.551,0,0,1,7.513,5.513H9.151V4H10.79V5.513h8.571V4H21V5.513h1.639a1.551,1.551,0,0,1,1.513,1.513v15.63a1.551,1.551,0,0,1-1.513,1.513Zm0-1.513H22.639V11.815H7.513Zm0-12.353H22.639V7.025H7.513Zm0,0v0Z" transform="translate(-6 -4)" fill="#fff"/>
</svg>
