<svg xmlns="http://www.w3.org/2000/svg" width="30.53" height="30.53" viewBox="0 0 30.53 30.53">
  <g id="visibility_black_24dp" transform="translate(0 0)">
    <path id="Path_162" data-name="Path 162" d="M0,0H30.53V30.53H0Z" transform="translate(0 0)" fill="none"/>
    <path id="Path_163" data-name="Path 163" d="M14.993,6.544a12.428,12.428,0,0,1,11.22,7,12.494,12.494,0,0,1-22.439,0,12.428,12.428,0,0,1,11.22-7m0-2.544A15.045,15.045,0,0,0,1,13.541a15.032,15.032,0,0,0,27.986,0A15.045,15.045,0,0,0,14.993,4Zm0,6.36a3.18,3.18,0,1,1-3.18,3.18,3.181,3.181,0,0,1,3.18-3.18m0-2.544a5.724,5.724,0,1,0,5.724,5.724A5.733,5.733,0,0,0,14.993,7.816Z" transform="translate(0.272 1.088)" fill="#fff"/>
  </g>
</svg>
