<svg xmlns="http://www.w3.org/2000/svg" width="34.063" height="34.063" viewBox="0 0 34.063 34.063">
  <path id="icons8-linkedin-circled" d="M20.032,3A17.032,17.032,0,1,0,37.063,20.032,17.032,17.032,0,0,0,20.032,3Zm-6.393,7.668a1.85,1.85,0,0,1,1.991,1.858,1.893,1.893,0,0,1-2.123,1.858,1.849,1.849,0,0,1-1.991-1.858A1.893,1.893,0,0,1,13.639,10.668Zm2.135,16.46H11.516V15.774h4.258Zm14.193,0H25.959V20.923c0-1.716-1.069-2.112-1.469-2.112s-1.737.264-1.737,2.112v6.205h-4.14V15.774h4.142v1.584c.534-.924,1.6-1.584,3.606-1.584s3.606,1.584,3.606,5.149Z" transform="translate(-3 -3)" fill="#8358e8"/>
</svg>
