<svg xmlns="http://www.w3.org/2000/svg" width="36.903" height="29.989" viewBox="0 0 36.903 29.989">
  <path id="icons8-twitter" d="M38.9,7.986a15.113,15.113,0,0,1-4.349,1.192A7.584,7.584,0,0,0,37.882,4.99a15.18,15.18,0,0,1-4.809,1.838,7.573,7.573,0,0,0-13.1,5.179,7.655,7.655,0,0,0,.2,1.724A21.493,21.493,0,0,1,4.568,5.82,7.585,7.585,0,0,0,6.911,15.928a7.555,7.555,0,0,1-3.429-.947v.1A7.572,7.572,0,0,0,9.555,22.5a7.574,7.574,0,0,1-2,.265,7.709,7.709,0,0,1-1.424-.135,7.58,7.58,0,0,0,7.072,5.259A15.277,15.277,0,0,1,2,31.024a21.434,21.434,0,0,0,11.606,3.4c13.926,0,21.539-11.536,21.539-21.541q0-.492-.021-.979A15.406,15.406,0,0,0,38.9,7.986Z" transform="translate(-1.999 -4.436)" fill="#8358e8"/>
</svg>
