<svg id="assignment_black_24dp" xmlns="http://www.w3.org/2000/svg" width="36.604" height="36.604" viewBox="0 0 36.604 36.604">
  <path id="Path_116" data-name="Path 116" d="M0,0H36.6V36.6H0Z" fill="none"/>
  <path id="Path_117" data-name="Path 117" d="M9.1,22.352H19.777V25.4H9.1Zm0-6.1H24.352V19.3H9.1Zm0-6.1H24.352V13.2H9.1Zm18.3-6.1H21.027a4.557,4.557,0,0,0-8.6,0H6.05a2.672,2.672,0,0,0-.61.061,3.082,3.082,0,0,0-2.2,1.815A2.938,2.938,0,0,0,3,7.1V28.453a3.129,3.129,0,0,0,.244,1.19,3.232,3.232,0,0,0,.656.976,3.062,3.062,0,0,0,1.54.839,3.958,3.958,0,0,0,.61.046H27.4a3.059,3.059,0,0,0,3.05-3.05V7.1A3.059,3.059,0,0,0,27.4,4.05ZM16.726,3.669a1.144,1.144,0,1,1-1.144,1.144A1.152,1.152,0,0,1,16.726,3.669ZM27.4,28.453H6.05V7.1H27.4Z" transform="translate(1.575 0.525)" fill="#8358e8"/>
</svg>
