<svg xmlns="http://www.w3.org/2000/svg" width="50" height="50" viewBox="0 0 50 50">
  <path id="sentiment_extremely_dissatisfied_FILL0_wght400_GRAD0_opsz48" d="M29,54a24.344,24.344,0,0,1-9.75-1.969,24.985,24.985,0,0,1-7.937-5.375,25.627,25.627,0,0,1-5.344-7.969,24.972,24.972,0,0,1,0-19.437A24.961,24.961,0,0,1,19.25,5.969,24.344,24.344,0,0,1,29,4a24.122,24.122,0,0,1,9.719,1.969,25.73,25.73,0,0,1,7.938,5.344,24.985,24.985,0,0,1,5.375,7.938,24.972,24.972,0,0,1,0,19.438A25.272,25.272,0,0,1,38.719,52.031,24.122,24.122,0,0,1,29,54Zm0-3.75a20.478,20.478,0,0,0,15.031-6.219A20.478,20.478,0,0,0,50.25,29a20.448,20.448,0,0,0-6.219-15.062A20.53,20.53,0,0,0,29,7.75a20.5,20.5,0,0,0-15.062,6.188A20.5,20.5,0,0,0,7.75,29a20.53,20.53,0,0,0,6.188,15.031A20.448,20.448,0,0,0,29,50.25Zm4.563-24.437.875-.5a3.288,3.288,0,0,0,1.125,2.063,3.349,3.349,0,0,0,5.563-2.562,3.307,3.307,0,0,0-.344-1.5,3.532,3.532,0,0,0-.969-1.187l1.688-.937L40.25,19l-7.937,4.563Zm-9.125,0,1.25-2.25L17.75,19,16.5,21.188l1.688.938a3.532,3.532,0,0,0-.969,1.188,3.307,3.307,0,0,0-.344,1.5,3.361,3.361,0,0,0,6.688.5ZM29,31.688a11.131,11.131,0,0,0-7.562,2.844A17.762,17.762,0,0,0,16.563,41.5H41.438a18.89,18.89,0,0,0-4.906-6.937A10.948,10.948,0,0,0,29,31.688ZM29,29Z" transform="translate(-4 -4)" fill="#fff"/>
</svg>
