<svg xmlns="http://www.w3.org/2000/svg" width="50" height="50" viewBox="0 0 50 50">
  <path id="sentiment_neutral_FILL0_wght400_GRAD0_opsz48" d="M38.125,25.688a3.31,3.31,0,1,0-2.406-.969A3.267,3.267,0,0,0,38.125,25.688Zm-18.25,0a3.31,3.31,0,1,0-2.406-.969A3.267,3.267,0,0,0,19.875,25.688Zm1.25,12.125H36.938V34.75H21.125ZM29,54a24.19,24.19,0,0,1-9.687-1.969A25.188,25.188,0,0,1,5.969,38.688a24.972,24.972,0,0,1,0-19.437,24.985,24.985,0,0,1,5.375-7.937,25.627,25.627,0,0,1,7.969-5.344,24.972,24.972,0,0,1,19.438,0A24.961,24.961,0,0,1,52.031,19.25a24.972,24.972,0,0,1,0,19.438,25.627,25.627,0,0,1-5.344,7.969,24.985,24.985,0,0,1-7.937,5.375A24.344,24.344,0,0,1,29,54Zm0-25Zm0,21.25a20.448,20.448,0,0,0,15.063-6.219A20.53,20.53,0,0,0,50.25,29a20.5,20.5,0,0,0-6.187-15.062A20.5,20.5,0,0,0,29,7.75a20.53,20.53,0,0,0-15.031,6.188A20.448,20.448,0,0,0,7.75,29a20.478,20.478,0,0,0,6.219,15.031A20.478,20.478,0,0,0,29,50.25Z" transform="translate(-4 -4)" fill="#fff"/>
</svg>
