<svg xmlns="http://www.w3.org/2000/svg" width="50" height="50" viewBox="0 0 50 50">
  <path id="sentiment_very_satisfied_FILL0_wght400_GRAD0_opsz48" d="M29,42.688a13.814,13.814,0,0,0,7.594-2.219,12.724,12.724,0,0,0,5.031-6.031H16.375a13.15,13.15,0,0,0,5.063,6.031A13.662,13.662,0,0,0,29,42.688Zm-11.125-17,2.813-2.812L23.5,25.688l2.25-2.25-5.062-5.062-5.062,5.063Zm16.688,0,2.813-2.812,2.813,2.813,2.25-2.25-5.062-5.062-5.062,5.063ZM29,54a24.19,24.19,0,0,1-9.687-1.969A25.188,25.188,0,0,1,5.969,38.688a24.972,24.972,0,0,1,0-19.437,24.985,24.985,0,0,1,5.375-7.937,25.627,25.627,0,0,1,7.969-5.344,24.972,24.972,0,0,1,19.438,0A24.961,24.961,0,0,1,52.031,19.25a24.972,24.972,0,0,1,0,19.438,25.627,25.627,0,0,1-5.344,7.969,24.985,24.985,0,0,1-7.937,5.375A24.344,24.344,0,0,1,29,54Zm0-25Zm0,21.25a20.448,20.448,0,0,0,15.063-6.219A20.53,20.53,0,0,0,50.25,29a20.5,20.5,0,0,0-6.187-15.062A20.5,20.5,0,0,0,29,7.75a20.53,20.53,0,0,0-15.031,6.188A20.448,20.448,0,0,0,7.75,29a20.478,20.478,0,0,0,6.219,15.031A20.478,20.478,0,0,0,29,50.25Z" transform="translate(-4 -4)" fill="#fff"/>
</svg>
