<svg xmlns="http://www.w3.org/2000/svg" width="50.205" height="50.205" viewBox="0 0 50.205 50.205">
  <path id="sentiment_very_dissatisfied_FILL0_wght400_GRAD0_opsz48" d="M29.1,33.056a13.148,13.148,0,0,0-7.625,2.353,13.977,13.977,0,0,0-5.052,6.244H41.779a13.509,13.509,0,0,0-5.02-6.244A13.292,13.292,0,0,0,29.1,33.056ZM17.618,28.538l3.138-2.824,2.824,2.824,1.945-2.259L22.7,23.454l2.824-2.824L23.58,18.371,20.756,21.2l-3.138-2.824L15.673,20.63,18.5,23.454l-2.824,2.824Zm17.07,0,2.761-2.824,3.2,2.824,1.945-2.259-2.824-2.824,2.824-2.824L40.65,18.371l-3.2,2.824-2.761-2.824L32.742,20.63,35.5,23.454l-2.761,2.824ZM29.1,54.2a24.289,24.289,0,0,1-9.727-1.977,25.291,25.291,0,0,1-13.4-13.4,25.075,25.075,0,0,1,0-19.517,25.087,25.087,0,0,1,5.4-7.97,25.732,25.732,0,0,1,8-5.366,25.075,25.075,0,0,1,19.517,0A25.063,25.063,0,0,1,52.228,19.312a25.075,25.075,0,0,1,0,19.517,25.732,25.732,0,0,1-5.366,8,25.087,25.087,0,0,1-7.97,5.4A24.444,24.444,0,0,1,29.1,54.2Zm0-25.1Zm0,21.337A20.532,20.532,0,0,0,44.227,44.2,20.614,20.614,0,0,0,50.439,29.1a20.584,20.584,0,0,0-6.213-15.124A20.584,20.584,0,0,0,29.1,7.765,20.614,20.614,0,0,0,14.01,13.978,20.532,20.532,0,0,0,7.765,29.1,20.562,20.562,0,0,0,14.01,44.2,20.562,20.562,0,0,0,29.1,50.439Z" transform="translate(-4 -4)" fill="#fff"/>
</svg>
