<svg id="people_black_24dp" xmlns="http://www.w3.org/2000/svg" width="23" height="23" viewBox="0 0 23 23">
  <path id="Path_103" data-name="Path 103" d="M0,0H23V23H0Z" fill="none"/>
  <path id="Path_104" data-name="Path 104" d="M8.977,14.583C6.644,14.583,2,15.865,2,18.417v1.917H15.953V18.417C15.953,15.865,11.309,14.583,8.977,14.583Zm-4.644,3.56a8.966,8.966,0,0,1,4.644-1.369,8.966,8.966,0,0,1,4.644,1.369Zm4.644-5.476a3.677,3.677,0,0,0,3.488-3.833A3.677,3.677,0,0,0,8.977,5,3.677,3.677,0,0,0,5.488,8.833,3.677,3.677,0,0,0,8.977,12.667Zm0-5.476a1.572,1.572,0,0,1,1.495,1.643,1.572,1.572,0,0,1-1.495,1.643A1.572,1.572,0,0,1,7.482,8.833,1.572,1.572,0,0,1,8.977,7.19Zm7.017,7.459a4.7,4.7,0,0,1,1.953,3.768v1.917h3.987V18.417C21.933,16.2,18.445,14.945,15.993,14.649Zm-1.037-1.982a3.677,3.677,0,0,0,3.488-3.833A3.677,3.677,0,0,0,14.957,5a3.183,3.183,0,0,0-1.5.383,6.469,6.469,0,0,1,0,6.9A3.183,3.183,0,0,0,14.957,12.667Z" transform="translate(-0.467 -1.167)" fill="#7b7b7b"/>
</svg>
