<svg id="people_black_24dp" xmlns="http://www.w3.org/2000/svg" width="30" height="30" viewBox="0 0 30 30">
  <path id="Path_103" data-name="Path 103" d="M0,0H30V30H0Z" fill="none"/>
  <path id="Path_104" data-name="Path 104" d="M11.1,17.5c-3.042,0-9.1,1.671-9.1,5V25H20.2V22.5C20.2,19.171,14.142,17.5,11.1,17.5ZM5.042,22.143A11.7,11.7,0,0,1,11.1,20.357a11.7,11.7,0,0,1,6.058,1.786ZM11.1,15a4.8,4.8,0,0,0,4.55-5A4.8,4.8,0,0,0,11.1,5a4.8,4.8,0,0,0-4.55,5A4.8,4.8,0,0,0,11.1,15Zm0-7.143A2.051,2.051,0,0,1,13.05,10a2.051,2.051,0,0,1-1.95,2.143A2.051,2.051,0,0,1,9.15,10,2.05,2.05,0,0,1,11.1,7.857Zm9.152,9.729A6.133,6.133,0,0,1,22.8,22.5V25H28V22.5C28,19.614,23.45,17.971,20.252,17.586ZM18.9,15a4.8,4.8,0,0,0,4.55-5A4.8,4.8,0,0,0,18.9,5a4.152,4.152,0,0,0-1.95.5,8.438,8.438,0,0,1,0,9A4.152,4.152,0,0,0,18.9,15Z" transform="translate(0 0)" fill="#7b7b7b"/>
</svg>
