<svg xmlns="http://www.w3.org/2000/svg" width="17.271" height="17.271" viewBox="0 0 17.271 17.271">
  <path id="person_FILL0_wght400_GRAD0_opsz48" d="M16.636,17.294a3.883,3.883,0,0,1-2.915-1.168,4.134,4.134,0,0,1-1.133-3,4.134,4.134,0,0,1,1.133-3A3.883,3.883,0,0,1,16.636,8.95a3.883,3.883,0,0,1,2.915,1.168,4.134,4.134,0,0,1,1.133,3,4.134,4.134,0,0,1-1.133,3A3.883,3.883,0,0,1,16.636,17.294ZM8,26.221V23.607A3.128,3.128,0,0,1,8.513,21.8a3.318,3.318,0,0,1,1.322-1.14A19.884,19.884,0,0,1,13.3,19.407a13.624,13.624,0,0,1,3.333-.417,13.052,13.052,0,0,1,3.319.431,22.531,22.531,0,0,1,3.454,1.238,3.277,3.277,0,0,1,1.349,1.14,3.128,3.128,0,0,1,.513,1.808v2.614Zm1.619-1.669H23.652v-.946a1.557,1.557,0,0,0-.256-.848,1.644,1.644,0,0,0-.634-.6A14.056,14.056,0,0,0,19.6,20.979a13.564,13.564,0,0,0-2.969-.32,13.932,13.932,0,0,0-3,.32,13.445,13.445,0,0,0-3.157,1.182,1.553,1.553,0,0,0-.621.6,1.619,1.619,0,0,0-.243.848Zm7.017-8.928a2.323,2.323,0,0,0,1.741-.709,2.471,2.471,0,0,0,.688-1.794,2.471,2.471,0,0,0-.688-1.794,2.491,2.491,0,0,0-3.481,0,2.471,2.471,0,0,0-.688,1.794,2.471,2.471,0,0,0,.688,1.794A2.323,2.323,0,0,0,16.636,15.625Zm0-2.5Zm0,11.431Z" transform="translate(-8 -8.95)" fill="#fff"/>
</svg>
