<svg xmlns="http://www.w3.org/2000/svg" width="36.5" height="25.757" viewBox="0 0 36.5 25.757">
  <path id="person_add_FILL0_wght400_GRAD0_opsz48_1_" data-name="person_add_FILL0_wght400_GRAD0_opsz48 (1)" d="M30.619,24.753V19.361H25.227V16.872h5.392V11.48h2.489v5.392H38.5v2.489H33.108v5.392Zm-15.347-3.36a5.967,5.967,0,0,1-6.222-6.222A5.967,5.967,0,0,1,15.273,8.95a5.967,5.967,0,0,1,6.222,6.222,5.967,5.967,0,0,1-6.222,6.222ZM2,34.707v-3.9a4.831,4.831,0,0,1,.747-2.634A4.544,4.544,0,0,1,4.82,26.412a31.786,31.786,0,0,1,5.537-1.929,21.852,21.852,0,0,1,9.83,0,30.719,30.719,0,0,1,5.5,1.929A4.988,4.988,0,0,1,27.778,28.2a4.635,4.635,0,0,1,.767,2.613v3.9Zm2.489-2.489H26.057v-1.41a2.582,2.582,0,0,0-.332-1.265,2.01,2.01,0,0,0-1.037-.892,21.611,21.611,0,0,0-4.957-1.825,22.527,22.527,0,0,0-4.459-.415,21.489,21.489,0,0,0-4.459.436,24.336,24.336,0,0,0-5,1.8,2.172,2.172,0,0,0-.975.892,2.464,2.464,0,0,0-.353,1.265ZM15.273,18.9a3.618,3.618,0,0,0,3.733-3.733,3.618,3.618,0,0,0-3.733-3.733,3.618,3.618,0,0,0-3.733,3.733A3.618,3.618,0,0,0,15.273,18.9Zm0-3.733Zm0,11.24Z" transform="translate(-2 -8.95)" fill="#fff"/>
</svg>
