<svg xmlns="http://www.w3.org/2000/svg" width="31.952" height="33" viewBox="0 0 31.952 33">
  <path id="person_off_FILL0_wght400_GRAD0_opsz48" d="M33.274,38.2l-3.979-4.109H7.029v-3.9a4.676,4.676,0,0,1,.764-2.7,4.945,4.945,0,0,1,1.969-1.7A30.541,30.541,0,0,1,14.4,24.045a19.257,19.257,0,0,1,4.481-.706h0L3.05,6.985,4.778,5.2,35,36.415ZM9.44,31.6H26.883L21.3,25.83a5.342,5.342,0,0,0-.683-.042H19.89a20.707,20.707,0,0,0-4.461.477,20,20,0,0,0-4.7,1.764,2.314,2.314,0,0,0-.924.892,2.421,2.421,0,0,0-.362,1.266Zm20.538-5.811a4.883,4.883,0,0,1,2.01,1.7,4.676,4.676,0,0,1,.764,2.7v.332L27,24.585q.723.249,1.467.56T29.978,25.789ZM22.7,20.143l-1.929-1.992a3.428,3.428,0,0,0,1.969-1.287,3.713,3.713,0,0,0,.764-2.325,3.672,3.672,0,0,0-1.045-2.657,3.605,3.605,0,0,0-4.823-.291,3.567,3.567,0,0,0-1.246,2.034l-1.929-1.992a5.638,5.638,0,0,1,2.231-2.449,6.142,6.142,0,0,1,3.2-.872,5.728,5.728,0,0,1,4.28,1.806,6.114,6.114,0,0,1,1.748,4.421,6.669,6.669,0,0,1-.844,3.3A5.606,5.606,0,0,1,22.7,20.143ZM26.883,31.6h0ZM18.6,15.868Z" transform="translate(-3.05 -5.2)" fill="#fff"/>
</svg>
