<svg xmlns="http://www.w3.org/2000/svg" width="66.422" height="46.873" viewBox="0 0 66.422 46.873">
  <path id="person_add_FILL0_wght400_GRAD0_opsz48" d="M54.081,37.708V27.9H44.268V23.367h9.812V13.554H58.61v9.812h9.812V27.9H58.61v9.812ZM26.153,31.594A10.859,10.859,0,0,1,14.831,20.272,10.859,10.859,0,0,1,26.153,8.95,10.859,10.859,0,0,1,37.475,20.272,10.859,10.859,0,0,1,26.153,31.594ZM2,55.823v-7.1a8.791,8.791,0,0,1,1.359-4.793,8.268,8.268,0,0,1,3.774-3.208,57.844,57.844,0,0,1,10.077-3.51,39.765,39.765,0,0,1,17.889,0,55.9,55.9,0,0,1,10,3.51,9.077,9.077,0,0,1,3.812,3.246,8.435,8.435,0,0,1,1.4,4.755v7.1Zm4.529-4.529H45.778V48.728a4.7,4.7,0,0,0-.6-2.3A3.657,3.657,0,0,0,43.287,44.8a39.327,39.327,0,0,0-9.02-3.321,41,41,0,0,0-8.114-.755,39.1,39.1,0,0,0-8.114.793,44.286,44.286,0,0,0-9.1,3.283A3.953,3.953,0,0,0,7.17,46.426a4.484,4.484,0,0,0-.642,2.3ZM26.153,27.065a6.583,6.583,0,0,0,6.793-6.793,6.583,6.583,0,0,0-6.793-6.793,6.583,6.583,0,0,0-6.793,6.793,6.583,6.583,0,0,0,6.793,6.793Zm0-6.793Zm0,20.455Z" transform="translate(-2 -8.95)" fill="#7b7b7b"/>
</svg>
