<svg xmlns="http://www.w3.org/2000/svg" width="66" height="47" viewBox="0 0 66 47">
  <path id="group_FILL0_wght400_GRAD0_opsz48" d="M1.9,55.95V48.836A8.9,8.9,0,0,1,3.244,44.03a8.21,8.21,0,0,1,3.733-3.217,58.656,58.656,0,0,1,9.818-3.481,38.024,38.024,0,0,1,9-1.06,37.56,37.56,0,0,1,8.959,1.06,59.158,59.158,0,0,1,9.781,3.481A8.433,8.433,0,0,1,48.3,44.03a8.726,8.726,0,0,1,1.381,4.806V55.95Zm43.6-19.9a73.138,73.138,0,0,1,9.706,1.779A33.913,33.913,0,0,1,62.6,40.51a11.614,11.614,0,0,1,3.882,3.557A8.379,8.379,0,0,1,67.9,48.836V55.95H54.162V48.836A12.365,12.365,0,0,0,51.773,41,17.525,17.525,0,0,0,45.5,36.045Zm-19.71-4.39a10.836,10.836,0,0,1-8.063-3.179A11.147,11.147,0,0,1,14.592,20.3a11.147,11.147,0,0,1,3.136-8.174A10.836,10.836,0,0,1,25.791,8.95a10.836,10.836,0,0,1,8.063,3.179A11.147,11.147,0,0,1,36.991,20.3a11.147,11.147,0,0,1-3.136,8.174A10.836,10.836,0,0,1,25.791,31.655ZM52.669,20.3a11.147,11.147,0,0,1-3.136,8.174,10.836,10.836,0,0,1-8.063,3.179,16.472,16.472,0,0,1-1.829-.114,7.806,7.806,0,0,1-1.829-.416,12.457,12.457,0,0,0,2.725-4.655A19.194,19.194,0,0,0,41.47,20.3a17.837,17.837,0,0,0-.933-6.017A16.146,16.146,0,0,0,37.812,9.48,15.569,15.569,0,0,1,39.641,9.1,12.415,12.415,0,0,1,41.47,8.95a10.836,10.836,0,0,1,8.063,3.179A11.147,11.147,0,0,1,52.669,20.3ZM6.38,51.409H45.2V48.836a4.371,4.371,0,0,0-.709-2.346A3.921,3.921,0,0,0,42.739,44.9a49.96,49.96,0,0,0-9.034-3.254,35.633,35.633,0,0,0-7.914-.833,36.138,36.138,0,0,0-7.951.833A49.518,49.518,0,0,0,8.769,44.9a3.722,3.722,0,0,0-1.717,1.589,4.547,4.547,0,0,0-.672,2.346ZM25.791,27.114a6.48,6.48,0,0,0,4.816-1.93,6.664,6.664,0,0,0,1.9-4.882,6.664,6.664,0,0,0-1.9-4.882,6.48,6.48,0,0,0-4.816-1.93,6.48,6.48,0,0,0-4.816,1.93,6.664,6.664,0,0,0-1.9,4.882,6.664,6.664,0,0,0,1.9,4.882A6.48,6.48,0,0,0,25.791,27.114Zm0-6.812Zm0,20.51Z" transform="translate(-1.9 -8.95)" fill="#7b7b7b"/>
</svg>
